<svg xmlns="http://www.w3.org/2000/svg" viewBox="0 0 640 440" role="img" aria-labelledby="title desc">
  <title id="title">Ilustracion de animales preferidos</title>
  <desc id="desc">Dibujo infantil con mascaras de animales y hojas verdes.</desc>
  <rect width="640" height="440" rx="32" fill="#eef7e6"/>
  <path d="M146 314c42-82 118-118 174-60 56-58 132-22 174 60" fill="#fff" stroke="#6da13b" stroke-width="10" stroke-linejoin="round"/>
  <circle cx="236" cy="214" r="68" fill="#fff6c8" stroke="#273044" stroke-width="10"/>
  <circle cx="404" cy="214" r="68" fill="#fff" stroke="#273044" stroke-width="10"/>
  <path d="M196 170 174 112l58 24M444 170l22-58-58 24" fill="#f29a31" stroke="#273044" stroke-width="8" stroke-linejoin="round"/>
  <circle cx="214" cy="210" r="9" fill="#273044"/>
  <circle cx="258" cy="210" r="9" fill="#273044"/>
  <path d="M224 246c10 10 24 10 34 0M380 244c12 12 36 12 48 0" fill="none" stroke="#273044" stroke-width="8" stroke-linecap="round"/>
  <path d="M364 170c-12-46 68-46 80 0" fill="#f03030" opacity=".8"/>
  <path d="M116 108c44 10 76 34 96 74M524 108c-44 10-76 34-96 74" fill="none" stroke="#6da13b" stroke-width="14" stroke-linecap="round"/>
</svg>
