<svg xmlns="http://www.w3.org/2000/svg" viewBox="0 0 420 320" role="img" aria-labelledby="title desc">
  <title id="title">Sol y camino de crecimiento</title>
  <desc id="desc">Ilustracion original de un sol infantil, flores y un camino.</desc>
  <rect width="420" height="320" fill="#fff8d7" rx="34"/>
  <g transform="translate(206 99)">
    <circle r="58" fill="#f6df3b" stroke="#273044" stroke-width="6"/>
    <g stroke="#273044" stroke-linecap="round" stroke-width="5">
      <path d="M0-86v-28"/><path d="M0 86v28"/><path d="M86 0h28"/><path d="M-86 0h-28"/>
      <path d="m61-61 20-20"/><path d="m-61 61-20 20"/><path d="m61 61 20 20"/><path d="m-61-61-20-20"/>
    </g>
    <circle cx="-19" cy="-9" r="6" fill="#273044"/>
    <circle cx="19" cy="-9" r="6" fill="#273044"/>
    <path d="M-24 19c15 15 33 15 48 0" fill="none" stroke="#273044" stroke-linecap="round" stroke-width="5"/>
  </g>
  <path d="M52 257c62-54 121-54 177 0s101 38 139 2" fill="none" stroke="#6da13b" stroke-linecap="round" stroke-width="10"/>
  <g fill="#f03030" stroke="#273044" stroke-width="4">
    <circle cx="91" cy="220" r="13"/><circle cx="118" cy="214" r="13"/><circle cx="105" cy="195" r="13"/>
  </g>
  <circle cx="105" cy="214" r="8" fill="#ffffff"/>
  <path d="M105 227v31" stroke="#273044" stroke-linecap="round" stroke-width="5"/>
</svg>
